<svg xmlns="http://www.w3.org/2000/svg" width="25.481" height="50" viewBox="0 0 25.481 50">
  <path id="facebook" d="M155.8,54.96c-.248.01-.407.03-.566.03-3.394,0-6.777-.01-10.171.01-.476,0-.605-.129-.605-.605q.015-11.848.01-23.705V30H139V21.571h.536c1.488,0,2.977-.01,4.465.01.377,0,.476-.109.476-.476-.02-2.213-.02-4.435,0-6.648A9.762,9.762,0,0,1,145.45,10a8.473,8.473,0,0,1,4.684-4.048,14.753,14.753,0,0,1,5.19-.923c2.878-.04,5.755-.02,8.633-.03.268,0,.486-.01.486.367q-.015,4.093-.01,8.186a.807.807,0,0,1-.05.189h-.546c-1.786,0-3.572-.01-5.358,0a2.6,2.6,0,0,0-2.391,1.32,1.909,1.909,0,0,0-.258.933c-.03,1.687,0,3.374-.02,5.061,0,.4.119.506.506.506,2.481-.02,4.961-.01,7.442-.01h.724c-.347,2.838-.685,5.616-1.032,8.424H155.8Z" transform="translate(-139 -5)" fill="#fff"/>
</svg>
