<svg xmlns="http://www.w3.org/2000/svg" width="41.354" height="50" viewBox="0 0 41.354 50">
  <path id="github" d="M89.622,104.752c-.745.079-1.377.158-2.009.226a9.078,9.078,0,0,1-8.318-3.126,25.328,25.328,0,0,1-1.637-2.731c-.892-1.4-1.806-2.788-2.788-4.131a8.547,8.547,0,0,0-1.377-1.129c-.147-.124-.192-.361-.293-.553a2.638,2.638,0,0,1,.6-.237,5.658,5.658,0,0,1,5.7,3.115,7.749,7.749,0,0,0,7.02,4.153,12.486,12.486,0,0,0,2.7-.508.689.689,0,0,0,.4-.5,10.5,10.5,0,0,1,.846-3.42c.2-.4.44-.767.677-1.174-.914-.181-1.795-.316-2.664-.53-4.007-1.016-7.314-3.025-9.233-6.84a11.453,11.453,0,0,1-1.219-4.763,32.587,32.587,0,0,1,.463-7.7,8.732,8.732,0,0,1,2.4-4.729.764.764,0,0,0,.192-.959,10.055,10.055,0,0,1-.192-6.411c.135-.463.26-.926.4-1.411,3.093.587,4.932,2.675,6.659,4.989,1.783-1.321,3.894-1.433,5.948-1.569a32.386,32.386,0,0,1,7.314.271,8.028,8.028,0,0,1,3.273,1.2c1.061-1.095,2.054-2.2,3.149-3.205a6.81,6.81,0,0,1,3.126-1.58c.327-.079.5-.045.632.316a10.059,10.059,0,0,1,.045,7.472.664.664,0,0,0,.158.847,8.992,8.992,0,0,1,2.618,5.7,53.6,53.6,0,0,1,.35,6.016,12.065,12.065,0,0,1-2.641,7.72,12.762,12.762,0,0,1-4.752,3.589,19.114,19.114,0,0,1-5.609,1.546,1.844,1.844,0,0,0-.169.079,10.256,10.256,0,0,1,1.524,6.275c-.034,3.239-.023,6.467,0,9.707,0,.508-.147.632-.643.632q-6.01-.034-12.02,0c-.5,0-.655-.158-.655-.643.023-1.749.011-3.5.011-5.248C89.622,105.249,89.622,105.023,89.622,104.752Z" transform="translate(-73.2 -61.4)" fill="#fff"/>
</svg>
