<svg xmlns="http://www.w3.org/2000/svg" width="52.326" height="50" viewBox="0 0 52.326 50">
  <path id="linkedin" d="M52.326,41.288V60.629H41.107V42.574c0-4.539-1.618-7.624-5.677-7.624a6.143,6.143,0,0,0-5.754,4.1,7.756,7.756,0,0,0-.384,2.738v18.84H18.083s.15-30.567,0-33.733H29.294v4.781c-.015.039-.048.072-.063.116h.063v-.116A11.142,11.142,0,0,1,39.4,26.1C46.8,26.1,52.326,30.923,52.326,41.288ZM6.347,10.629C2.512,10.629,0,13.145,0,16.463c0,3.229,2.438,5.83,6.2,5.83H6.27c3.92,0,6.349-2.6,6.349-5.83C12.543,13.145,10.191,10.629,6.347,10.629Zm-5.677,50H11.883V26.892H.669Z" transform="translate(0 -10.629)" fill="#fff"/>
</svg>
